{"title":"SURFING - ASP TRESTLES 2008 - TWI","uid":5275257,"size":453425448,"categoryP":"video","categoryS":"movies","magnet":"?xt=urn:btih:717cc676ca0f9f2d5e2ba3040b36992153e06c30&amp;dn=SURFING+-+ASP+TRESTLES+2008+-+TWI&amp;tr=udp%3A%2F%2Ftracker.openbittorrent.com%3A80&amp;tr=udp%3A%2F%2Fopen.demonii.com%3A1337&amp;tr=udp%3A%2F%2Ftracker.coppersurfer.tk%3A6969&amp;tr=udp%3A%2F%2Fexodus.desync.com%3A6969","seeders":0,"leechers":1,"uploader":null,"files":1,"time":1263355500,"description":"trestles 2008 - twi.mp4\nFormat                           : MPEG-4\nFormat profile                   : Base Media / Version 1\nCodec ID                         : mp41\nFile size                        : 432 MiB\nDuration                         : 51mn 55s\nOverall bit rate                 : 1 164 Kbps\nEncoded date                     : UTC 2009-12-27 01:27:01\nTagged date                      : UTC 2009-12-27 01:27:01\n\nVideo\nFormat                           : MPEG-4 Visual\nFormat profile                   : Streaming Video@L1\nFormat settings, BVOP            : Yes\nFormat settings, QPel            : No\nFormat settings, GMC             : No warppoints\nFormat settings, Matrix          : Default\nCodec ID                         : 20\nDuration                         : 51mn 55s\nBit rate mode                    : Variable\nBit rate                         : 999 Kbps\nMaximum bit rate                 : 4 175 Kbps\nWidth                            : 592 pixels\nHeight                           : 368 pixels\nDisplay aspect ratio             : 16/9\nFrame rate mode                  : Constant\nFrame rate                       : 25.000 fps\nResolution                       : 24 bits\nColorimetry                      : 4:2:0\nScan type                        : Progressive\nBits/(Pixel*Frame)               : 0.183\nStream size                      : 371 MiB (86%)\nWriting library                  : em4v 4.1.6.5\nLanguage                         : English\nEncoded date                     : UTC 2009-12-27 01:27:01\nTagged date                      : UTC 2009-12-27 01:27:01\n\nAudio\nFormat                           : AAC\nFormat/Info                      : Advanced Audio Codec\nFormat version                   : Version 4\nFormat profile                   : LC\nFormat settings, SBR             : No\nCodec ID                         : 40\nDuration                         : 51mn 55s\nBit rate mode                    : Variable\nBit rate                         : 160 Kbps\nMaximum bit rate                 : 164 Kbps\nChannel(s)                       : 2 channels\nChannel positions                : L R\nSampling rate                    : 48.0 KHz\nResolution                       : 16 bits\nStream size                      : 59.4 MiB (14%)\nEncoded date                     : UTC 2009-12-27 01:27:01\nTagged date                      : UTC 2009-12-27 01:27:01\n\n","torrent":{"xt":"urn:btih:717cc676ca0f9f2d5e2ba3040b36992153e06c30","amp;dn":"SURFING+-+ASP+TRESTLES+2008+-+TWI","amp;tr":["udp%3A%2F%2Ftracker.openbittorrent.com%3A80","udp%3A%2F%2Fopen.demonii.com%3A1337","udp%3A%2F%2Ftracker.coppersurfer.tk%3A6969","udp%3A%2F%2Fexodus.desync.com%3A6969"],"infoHash":"717cc676ca0f9f2d5e2ba3040b36992153e06c30","infoHashBuffer":{"type":"Buffer","data":[113,124,198,118,202,15,159,45,94,43,163,4,11,54,153,33,83,224,108,48]},"announce":[],"urlList":[]}}